<?xml version="1.0" standalone="no"?>
<!DOCTYPE svg PUBLIC "-//W3C//DTD SVG 20010904//EN"
 "http://www.w3.org/TR/2001/REC-SVG-20010904/DTD/svg10.dtd">
<svg version="1.0" xmlns="http://www.w3.org/2000/svg"
 width="360.000000pt" height="360.000000pt" viewBox="0 0 360.000000 360.000000"
 preserveAspectRatio="xMidYMid meet">
<metadata>
Created by potrace 1.11, written by Peter Selinger 2001-2013
</metadata>
<g transform="translate(0.000000,360.000000) scale(0.100000,-0.100000)"
fill="#000000" stroke="none">
<path d="M1564 3575 c3 -8 32 -55 66 -104 33 -50 60 -93 60 -96 0 -3 -136 -5
-303 -5 l-302 0 -189 -189 -189 -189 140 -204 c77 -111 170 -246 206 -298 36
-52 95 -138 131 -190 36 -52 100 -146 143 -207 43 -62 119 -173 170 -246 l91
-133 -264 -89 c-146 -49 -267 -92 -269 -95 -2 -3 39 -76 91 -161 52 -85 97
-162 101 -172 3 -9 9 -17 13 -17 5 0 10 -6 12 -12 3 -12 33 -63 194 -328 72
-119 78 -103 -48 -136 -38 -9 -68 -21 -68 -26 0 -19 62 -99 73 -95 7 2 55 14
107 27 52 12 126 31 163 42 l69 19 -18 27 c-10 15 -28 43 -40 62 -17 27 -216
510 -248 603 -7 23 -1 24 114 31 52 3 123 9 157 12 l62 6 63 -129 c35 -71 69
-145 77 -164 23 -57 171 -260 262 -360 13 -14 39 -43 58 -65 44 -50 258 -278
350 -371 39 -40 71 -74 71 -76 0 -3 -38 -31 -85 -62 -47 -32 -85 -61 -85 -64
0 -13 98 -103 108 -100 24 10 292 195 289 201 -1 3 -31 37 -67 75 -36 38 -80
86 -98 108 -124 150 -442 597 -462 651 -9 22 -72 257 -85 314 -26 115 -58 231
-95 343 l-33 98 30 42 c17 23 66 94 109 157 95 138 236 343 359 520 50 71 141
204 204 296 l114 166 -189 189 -189 189 -306 0 -307 0 71 105 c39 58 68 107
65 111 -4 3 -55 -26 -114 -65 -59 -39 -111 -71 -116 -71 -4 0 -55 32 -112 70
-58 39 -108 70 -111 70 -4 0 -5 -7 -1 -15z m-4 -2891 c12 -19 20 -37 17 -40
-3 -3 -22 -10 -41 -15 -120 -30 -109 -30 -133 -1 -12 15 -22 32 -23 38 0 11
48 28 110 39 19 3 36 8 39 11 7 7 8 6 31 -32z m1305 -454 c5 -8 -37 -39 -215
-157 l-48 -31 -36 37 c-29 30 -34 40 -24 48 7 6 43 31 80 57 l67 46 26 -26
c29 -28 45 -27 90 11 32 26 50 31 60 15z"/>
</g>
</svg>
