<?xml version="1.0" encoding="UTF-8"?>
<svg width="371px" height="180px" viewBox="0 0 371 180" version="1.1" xmlns="http://www.w3.org/2000/svg" xmlns:xlink="http://www.w3.org/1999/xlink">
    <!-- Generator: Sketch 52.5 (67469) - http://www.bohemiancoding.com/sketch -->
    <title>Logo</title>
    <desc>Created with Sketch.</desc>
    <g id="Page-1" stroke="none" stroke-width="1" fill="none" fill-rule="evenodd">
        <g id="Logo" transform="translate(1.000000, 1.000000)">
            <g id="iconfinder_554_-_Runner_1954999" transform="translate(16.000000, 82.000000)">
                <g id="Layer_x0020_1">
                    <g id="_377929120">
                        <g id="Group">
                            <path d="M30.7615878,10.7904504 L1.13382458,20.746762 L28.1473734,65.1465301 L33.9790825,63.3974483 L19.4333254,27.4067272 C26.4380794,26.6330949 32.0016639,26.8012759 39.6432137,25.3549198 L30.7280723,10.7904504 L30.7615878,10.7904504 Z" id="Path" fill="#B0BEC5"></path>
                            <path d="M30.5269788,11.4631742 L1.97171381,21.0494877 L28.415498,64.4738063 L33.2752555,63.0274502 L18.9641074,27.6085444 C18.8635607,27.3058187 18.997623,27.003093 19.2657476,26.8685482 C19.3327787,26.834912 19.3662943,26.834912 19.4333254,26.834912 C22.0140242,26.5658225 24.3601141,26.3976416 26.7062039,26.2294607 C30.5269788,25.9603712 34.3142382,25.7249178 38.7718089,24.9176493 L30.4934633,11.429538 L30.5269788,11.4631742 Z M0.966246732,20.208583 L30.59401,10.2522714 C30.828619,10.184999 31.0967435,10.2522714 31.2308058,10.4877247 L40.1459472,25.0185579 C40.1794628,25.0858303 40.2129784,25.1531026 40.2464939,25.220375 C40.3135251,25.5231007 40.1124317,25.8258264 39.8107915,25.8594626 C34.9175184,26.7676397 30.8956501,27.0367292 26.8067507,27.3394549 C24.6952698,27.4739996 22.5502734,27.6421806 20.2712146,27.8776339 L34.5153316,63.1956312 C34.5153316,63.2292673 34.5153316,63.2292673 34.5488472,63.2629035 C34.6493939,63.5656292 34.481816,63.8683549 34.1801759,63.9692635 L28.3484668,65.7183453 C28.1138579,65.7856176 27.8457333,65.6847091 27.711671,65.4828919 L0.698122177,21.0831239 C0.664606608,21.0494877 0.664606608,21.0158515 0.631091039,20.9822153 C0.530544331,20.6794897 0.698122177,20.376764 0.966246732,20.2758554 L0.966246732,20.208583 Z" id="Shape" fill="#454B53" fill-rule="nonzero"></path>
                            <path d="M46.5139054,1.06959211 C52.1780366,4.06321284 58.2108391,37.1275855 61.3613026,45.5366325 C61.3613026,45.5366325 80.9679106,75.0355693 90.4193012,84.0500677 L85.3584502,87.5482312 C85.3584502,87.5482312 45.5419539,48.5302532 43.9667221,38.4057607 L30.2253387,10.9922675 L46.5139054,1.06959211 Z" id="Path" fill="#B0BEC5"></path>
                            <path d="M46.8155455,0.598685482 C50.904445,2.88594626 54.9598289,19.0649526 58.1438079,31.8130679 C59.5849774,37.5984922 60.8585691,42.6439204 61.8305206,45.267543 C62.7354409,46.6129905 81.5711909,74.8673884 90.7879724,83.6464334 C91.0225814,83.8482505 91.0225814,84.2182486 90.821488,84.4537019 C90.7879724,84.4873381 90.7544569,84.5209743 90.7209413,84.5546105 L85.6936059,88.0191378 C85.4589969,88.1873188 85.1908724,88.1536826 84.9897789,87.9518655 C84.8892322,87.8509569 45.3073449,49.0684322 43.4639886,38.5739416 L29.7561208,11.2277209 C29.6220585,10.9586314 29.7226052,10.6559057 29.9572142,10.4877247 L46.2457808,0.565049294 C46.4468743,0.430504543 46.6814832,0.464140731 46.8490611,0.565049294 L46.8155455,0.598685482 Z M57.0713097,32.0821574 C53.9878773,19.8049488 50.1000713,4.23139378 46.5139054,1.70867968 L30.9626812,11.1940847 L44.4694557,38.1366712 C44.5029712,38.2039436 44.5029712,38.2375797 44.5364868,38.3048521 C46.0111719,47.7566209 81.6717376,83.1082544 85.4589969,86.8082351 L89.5814119,83.9827953 C79.8954124,74.3964817 60.9926313,45.9066306 60.9256002,45.8393582 C60.8920846,45.805722 60.8920846,45.7720858 60.8585691,45.7384496 C59.853102,43.0475546 58.5795103,37.934854 57.1048253,32.0821574 L57.0713097,32.0821574 Z" id="Shape" fill="#454B53" fill-rule="nonzero"></path>
                            <path d="M15.6125505,62.6126825 L32.1692417,58.3773172 C32.4373663,58.3012328 32.7054908,58.4026787 32.8395531,58.580209 L35.8894699,63.069189 C36.0235322,63.2720807 35.9229855,63.5256954 35.6548609,63.6271413 C35.6213454,63.6525027 35.5878298,63.6525027 35.5543142,63.6525027 L18.997623,67.887868 C18.7294985,67.9639525 18.4613739,67.8625066 18.3273116,67.6849763 L15.2773948,63.1959963 C15.1433325,62.9931046 15.2438792,62.7394899 15.5120038,62.638044 C15.5455194,62.6126825 15.5790349,62.6126825 15.6125505,62.6126825 Z M32.068695,59.2903301 L16.5509865,63.2467192 L19.0981697,66.9748552 L34.6158783,63.018466 L32.068695,59.2903301 Z" id="Shape" fill="#454B53" fill-rule="nonzero"></path>
                            <path d="M73.1922986,90.4882305 L87.5034466,80.8166264 C87.7380556,80.655433 88.0396957,80.6876717 88.2407892,80.9133425 L92.8324222,85.5557124 C93.0335156,85.7813832 93.0335156,86.10377 92.7989066,86.3294408 C92.765391,86.3616794 92.765391,86.3616794 92.7318754,86.3939181 L78.4207274,96.0655223 C78.1861184,96.2267157 77.8844783,96.194477 77.6833848,95.9688062 L73.0917518,91.3264362 C72.8906584,91.1007655 72.8906584,90.7783787 73.1252674,90.5527079 C73.158783,90.5204692 73.158783,90.5204692 73.1922986,90.4882305 Z M87.7715712,81.9772189 L74.3653435,91.0362881 L78.1861184,94.9049298 L91.5923461,85.8458606 L87.7715712,81.9772189 Z" id="Shape" fill="#454B53" fill-rule="nonzero"></path>
                        </g>
                        <path d="M46.312812,1.84322443 L44.3353934,3.0541272 C44.3353934,3.08776339 44.368909,3.15503576 44.368909,3.18867195 C45.0392203,3.72685096 45.6760162,4.60139184 46.3463275,5.77865842 C46.4803898,6.04774792 46.6479677,6.31683743 46.78203,6.58592693 C46.9160922,6.85501643 47.0501545,7.12410593 47.1842168,7.39319544 C50.1000713,13.6158902 52.9153791,24.7831046 55.2279534,34.0666924 C56.6691229,39.8521168 57.9427145,44.8975449 58.914666,47.5211676 C59.7190397,48.7320704 75.0356549,71.7055867 84.8222011,82.7046201 L86.933682,81.2246279 C76.81198,69.8555964 60.9256002,45.9066306 60.8585691,45.8393582 C60.8250535,45.805722 60.8250535,45.7720858 60.7915379,45.7384496 C59.7860708,43.0475546 58.5124792,37.934854 57.0377942,32.0821574 C54.2560019,20.9822153 50.8038983,7.2250145 47.5193725,2.7850377 C47.3182791,2.51594819 47.0836701,2.24685869 46.8825767,2.04504156 C46.7485144,1.91049681 46.6144521,1.77595206 46.4803898,1.70867968 L46.312812,1.80958825 L46.312812,1.84322443 Z" id="Path" fill="#859095"></path>
                    </g>
                </g>
            </g>
            <g id="iconfinder_diamond_1375182">
                <g id="diamond">
                    <g id="fill">
                        <polygon id="Combined-Shape" fill="#FF7474" points="53.4997233 106.999046 106.999447 29.5166879 106.077033 28.596119 105.339102 29.3325743 106.078509 28.5946431 89.4750603 11.9911948 89.3857707 12.0797466 89.4741379 11.9913793 88.5517241 11.0689655 57.1896552 11.0689655 64.5689655 22.137931 53.5 14.7586207 42.4310345 22.137931 49.8103448 11.0689655 18.4482759 11.0689655 17.5258621 11.9913793 17.7712241 12.2367414 17.5258621 11.9926707 0 29.5166879 17.5255853 29.5166879 0 29.5166879"></polygon>
                        <polygon id="Fill-4" fill="#ECF4F7" points="64.56915 0.000737931034 53.5001845 7.38004828 42.431219 0.000737931034 49.8105293 11.0678586 42.431219 22.138669 53.5001845 14.7575138 64.56915 22.138669 57.1879948 11.0678586"></polygon>
                    </g>
                    <path d="M64.5689655,0 L53.5,7.37931034 L42.4310345,0 L49.8103448,11.0689655 L42.4310345,22.137931 L53.5,14.7586207 L64.5689655,22.137931 L57.1896552,11.0689655 L64.5689655,0 Z M23.9827586,18.4482759 L35.0517241,29.5172414 L53.5,107 L71.9482759,29.5172414 L83.0172414,18.4482759 L23.9827586,18.4482759 Z M97.7758621,29.5172414 L9.22413793,29.5172414 L97.7758621,29.5172414 Z M66.4137931,11.0689655 L88.5517241,11.0689655 L107,29.5172414 L53.5,107 L0,29.5172414 L18.4482759,11.0689655 L40.5862069,11.0689655 L66.4137931,11.0689655 Z" id="stroke" stroke="#51565F" stroke-linecap="round" stroke-linejoin="round"></path>
                </g>
            </g>
            <text id="run.rb" font-family="DINCondensed-Bold, DIN Condensed" font-size="140" font-style="condensed" font-weight="bold">
                <tspan x="109" y="127" fill="#585860">run</tspan>
                <tspan x="256.84" y="127" fill="#FF7474">.rb</tspan>
            </text>
        </g>
    </g>
</svg>